<?xml version="1.0" encoding="UTF-8" standalone="no"?>
<svg
   xmlns:dc="http://purl.org/dc/elements/1.1/"
   xmlns:cc="http://creativecommons.org/ns#"
   xmlns:rdf="http://www.w3.org/1999/02/22-rdf-syntax-ns#"
   xmlns:svg="http://www.w3.org/2000/svg"
   xmlns="http://www.w3.org/2000/svg"
   xmlns:xlink="http://www.w3.org/1999/xlink"
   id="svg7357"
   height="16"
   width="16"
   version="1.1">
  <defs
     id="defs7359">
    <linearGradient
       id="linearGradient839">
      <stop
         id="stop835"
         offset="0"
         style="stop-color:#fafafa;stop-opacity:1" />
      <stop
         id="stop837"
         offset="1"
         style="stop-color:#d4d4d4;stop-opacity:1" />
    </linearGradient>
    <linearGradient
       gradientTransform="matrix(0.2972973,0,0,0.2972973,0.86486973,0.86486734)"
       gradientUnits="userSpaceOnUse"
       xlink:href="#linearGradient3924-4-8"
       id="linearGradient4224"
       y2="40.818172"
       x2="23.99999"
       y1="7.1818099"
       x1="23.99999" />
    <linearGradient
       id="linearGradient3924-4-8">
      <stop
         offset="0"
         style="stop-color:#ffffff;stop-opacity:1"
         id="stop3926-0-4" />
      <stop
         offset="0"
         style="stop-color:#ffffff;stop-opacity:0.23529412"
         id="stop3928-6-8" />
      <stop
         offset="1"
         style="stop-color:#ffffff;stop-opacity:0.15686275"
         id="stop3930-2-1" />
      <stop
         offset="1"
         style="stop-color:#ffffff;stop-opacity:0.39215687"
         id="stop3932-9-0" />
    </linearGradient>
    <linearGradient
       gradientUnits="userSpaceOnUse"
       y2="16"
       x2="8"
       y1="2"
       x1="8"
       id="linearGradient841"
       xlink:href="#linearGradient839" />
  </defs>
  <metadata
     id="metadata7362">
    <rdf:RDF>
      <cc:Work
         rdf:about="">
        <dc:format>image/svg+xml</dc:format>
        <dc:type
           rdf:resource="http://purl.org/dc/dcmitype/StillImage" />
        <dc:title />
      </cc:Work>
    </rdf:RDF>
  </metadata>
  <path
     id="rect5505-21-2"
     d="m 2.5,2 h 11 C 13.777,2 14,2.223 14,2.5 v 9 C 14,11.777 13.777,12 13.5,12 H 10.796875 L 8,14.795282 5.1875,12 H 2.5 C 2.223,12 2,11.777 2,11.5 v -9 C 2,2.223 2.223,2 2.5,2 Z"
     style="color:#000000;display:inline;overflow:visible;visibility:visible;opacity:1;fill:url(#linearGradient841);fill-opacity:1;fill-rule:nonzero;stroke:none;stroke-width:0.99999994;marker:none;enable-background:accumulate" />
  <path
     id="rect6741-0-3"
     d="m 2.5,2.4999971 h 11 V 11.5 h -3 L 8,14.093913 5.5,11.5 h -3 z"
     style="opacity:1;fill:none;stroke:url(#linearGradient4224);stroke-width:1;stroke-linecap:round;stroke-linejoin:round;stroke-miterlimit:4;stroke-dasharray:none;stroke-dashoffset:0;stroke-opacity:1" />
  <path
     id="rect5505-21-2-8"
     d="m 2.5,1.5 c -0.554,0 -1,0.446 -1,1 v 9 c 0,0.554 0.446,1 1,1 H 5 l 3,3 3,-3 h 2.5 c 0.554,0 1,-0.446 1,-1 v -9 c 0,-0.554 -0.446,-1 -1,-1 z"
     style="color:#000000;display:inline;overflow:visible;visibility:visible;opacity:0.5;fill:none;stroke:#555761;stroke-width:1;stroke-linecap:round;stroke-linejoin:round;stroke-miterlimit:4;stroke-dasharray:none;stroke-dashoffset:0;stroke-opacity:1;marker:none;enable-background:accumulate" />
  <g
     transform="translate(0,1)"
     id="g848">
    <circle
       r="3.5"
       cy="6"
       cx="8"
       id="circle841"
       style="opacity:1;vector-effect:none;fill:#f9c440;fill-opacity:1;stroke:none;stroke-width:1;stroke-linecap:butt;stroke-linejoin:miter;stroke-miterlimit:4;stroke-dasharray:none;stroke-dashoffset:0;stroke-opacity:1;marker:none;paint-order:normal" />
    <circle
       style="opacity:1;vector-effect:none;fill:none;fill-opacity:1;stroke:#ad5f00;stroke-width:1;stroke-linecap:butt;stroke-linejoin:miter;stroke-miterlimit:4;stroke-dasharray:none;stroke-dashoffset:0;stroke-opacity:1;marker:none;paint-order:normal"
       id="path830"
       cx="8"
       cy="6"
       r="3.5" />
    <rect
       style="opacity:1;vector-effect:none;fill:#000000;fill-opacity:1;stroke:none;stroke-width:1;stroke-linecap:butt;stroke-linejoin:miter;stroke-miterlimit:4;stroke-dasharray:none;stroke-dashoffset:0;stroke-opacity:1;marker:none;paint-order:normal"
       id="rect832"
       width="1"
       height="1"
       x="6"
       y="4"
       rx="0.5"
       ry="0.5" />
    <rect
       style="opacity:1;vector-effect:none;fill:#000000;fill-opacity:1;stroke:none;stroke-width:1;stroke-linecap:butt;stroke-linejoin:miter;stroke-miterlimit:4;stroke-dasharray:none;stroke-dashoffset:0;stroke-opacity:1;marker:none;paint-order:normal"
       id="rect834"
       width="1"
       height="1"
       x="9"
       y="4"
       rx="0.5"
       ry="0.5" />
    <path
       style="opacity:1;vector-effect:none;fill:#000000;fill-opacity:1;stroke:none;stroke-width:1;stroke-linecap:butt;stroke-linejoin:miter;stroke-miterlimit:4;stroke-dasharray:none;stroke-dashoffset:0;stroke-opacity:1;marker:none;paint-order:normal"
       d="M 10,6 C 10,7.108 9.108,8 8,8 6.892,8 6,7.108 6,6 7,6 8.5,6 10,6 Z"
       id="rect838" />
    <path
       id="path838"
       transform="translate(0,-1)"
       d="M 8 8 C 7.446 8 7 8.2735125 7 8.6132812 L 7 8.7246094 C 7.2950013 8.8957089 7.6330699 9 8 9 C 8.3669301 9 8.7049987 8.8957089 9 8.7246094 L 9 8.6132812 C 9 8.2735125 8.554 8 8 8 z "
       style="opacity:1;vector-effect:none;fill:#c6262e;fill-opacity:1;stroke:none;stroke-width:1;stroke-linecap:butt;stroke-linejoin:miter;stroke-miterlimit:4;stroke-dasharray:none;stroke-dashoffset:0;stroke-opacity:1;marker:none;paint-order:normal" />
  </g>
</svg>
