<?xml version="1.0" encoding="UTF-8" standalone="no"?>
<svg
   xmlns:dc="http://purl.org/dc/elements/1.1/"
   xmlns:cc="http://creativecommons.org/ns#"
   xmlns:rdf="http://www.w3.org/1999/02/22-rdf-syntax-ns#"
   xmlns:svg="http://www.w3.org/2000/svg"
   xmlns="http://www.w3.org/2000/svg"
   xmlns:xlink="http://www.w3.org/1999/xlink"
   version="1.1"
   width="64"
   height="64"
   id="svg6333">
  <defs
     id="defs6335">
    <linearGradient
       id="linearGradient873">
      <stop
         style="stop-color:#000000;stop-opacity:1"
         offset="0"
         id="stop869" />
      <stop
         style="stop-color:#000000;stop-opacity:0"
         offset="1"
         id="stop871" />
    </linearGradient>
    <linearGradient
       id="linearGradient868">
      <stop
         style="stop-color:#ffe16b;stop-opacity:1"
         offset="0"
         id="stop864" />
      <stop
         style="stop-color:#f9c440;stop-opacity:1"
         offset="1"
         id="stop866" />
    </linearGradient>
    <linearGradient
       id="linearGradient872">
      <stop
         style="stop-color:#fafafa;stop-opacity:1"
         offset="0"
         id="stop868" />
      <stop
         style="stop-color:#d4d4d4;stop-opacity:1"
         offset="1"
         id="stop870" />
    </linearGradient>
    <linearGradient
       x1="23.99999"
       y1="4.999989"
       x2="23.99999"
       y2="43"
       id="linearGradient3381-5-4"
       xlink:href="#linearGradient3924-2-2-5-8"
       gradientUnits="userSpaceOnUse"
       gradientTransform="matrix(1.4324324,0,0,1.4362832,-2.378381,-2.4707782)" />
    <linearGradient
       id="linearGradient3924-2-2-5-8">
      <stop
         id="stop3926-9-4-9-6"
         style="stop-color:#ffffff;stop-opacity:1"
         offset="0" />
      <stop
         id="stop3928-9-8-6-5"
         style="stop-color:#ffffff;stop-opacity:0.23529412"
         offset="0.06316455" />
      <stop
         id="stop3930-3-5-1-7"
         style="stop-color:#ffffff;stop-opacity:0.15686275"
         offset="0.95056331" />
      <stop
         id="stop3932-8-0-4-8"
         style="stop-color:#ffffff;stop-opacity:0.39215687"
         offset="1" />
    </linearGradient>
    <radialGradient
       cx="4.9929786"
       cy="43.5"
       r="2.5"
       fx="4.9929786"
       fy="43.5"
       id="radialGradient3337-2-2"
       xlink:href="#linearGradient3688-166-749-4-0-3-8"
       gradientUnits="userSpaceOnUse"
       gradientTransform="matrix(2.0304974,0,0,1.4,27.78793,-17.4)" />
    <linearGradient
       id="linearGradient3688-166-749-4-0-3-8">
      <stop
         id="stop2883-4-0-1-8"
         style="stop-color:#181818;stop-opacity:1"
         offset="0" />
      <stop
         id="stop2885-9-2-9-6"
         style="stop-color:#181818;stop-opacity:0"
         offset="1" />
    </linearGradient>
    <radialGradient
       cx="4.9929786"
       cy="43.5"
       r="2.5"
       fx="4.9929786"
       fy="43.5"
       id="radialGradient3339-1-4"
       xlink:href="#linearGradient3688-464-309-9-2-4-2"
       gradientUnits="userSpaceOnUse"
       gradientTransform="matrix(2.0304974,0,0,1.4,-20.212001,-104.4)" />
    <linearGradient
       id="linearGradient3688-464-309-9-2-4-2">
      <stop
         id="stop2889-7-9-6-9"
         style="stop-color:#181818;stop-opacity:1"
         offset="0" />
      <stop
         id="stop2891-6-6-1-7"
         style="stop-color:#181818;stop-opacity:0"
         offset="1" />
    </linearGradient>
    <linearGradient
       id="linearGradient3702-501-757-8-4-1-1">
      <stop
         id="stop2895-8-9-9-1"
         style="stop-color:#181818;stop-opacity:0"
         offset="0" />
      <stop
         id="stop2897-7-8-7-7"
         style="stop-color:#181818;stop-opacity:1"
         offset="0.5" />
      <stop
         id="stop2899-4-5-1-5"
         style="stop-color:#181818;stop-opacity:0"
         offset="1" />
    </linearGradient>
    <linearGradient
       x1="25.058096"
       y1="47.027729"
       x2="25.058096"
       y2="39.999443"
       id="linearGradient6394"
       xlink:href="#linearGradient3702-501-757-8-4-1-1"
       gradientUnits="userSpaceOnUse"
       gradientTransform="matrix(0.99523631,0,0,1,0.11429448,0)" />
    <linearGradient
       xlink:href="#linearGradient872"
       id="linearGradient874"
       x1="31.585226"
       y1="4.6304479"
       x2="31.585226"
       y2="59.185272"
       gradientUnits="userSpaceOnUse" />
    <radialGradient
       xlink:href="#linearGradient873"
       id="radialGradient875"
       cx="32"
       cy="60"
       fx="32"
       fy="60"
       r="11"
       gradientTransform="matrix(1,0,0,0.18181818,0,48.090907)"
       gradientUnits="userSpaceOnUse" />
    <linearGradient
       gradientUnits="userSpaceOnUse"
       y2="120.00161"
       x2="65.3423"
       y1="8.3985853"
       x1="65.3423"
       id="linearGradient955"
       xlink:href="#linearGradient868" />
    <clipPath
       id="a-3">
      <use
         id="use42-6"
         xlink:href="#d"
         x="0"
         y="0"
         width="100%"
         height="100%" />
    </clipPath>
  </defs>
  <metadata
     id="metadata6338">
    <rdf:RDF>
      <cc:Work
         rdf:about="">
        <dc:format>image/svg+xml</dc:format>
        <dc:type
           rdf:resource="http://purl.org/dc/dcmitype/StillImage" />
        <dc:title />
      </cc:Work>
    </rdf:RDF>
  </metadata>
  <g
     style="opacity:0.07"
     id="g3712-8-2-4-4"
     transform="matrix(1.5789502,0,0,0.7142857,-5.894751,27.928572)">
    <rect
       style="fill:url(#radialGradient3337-2-2);fill-opacity:1;stroke:none;stroke-width:1"
       id="rect2801-5-5-7-9"
       y="40"
       x="37.933273"
       height="7"
       width="5.0666575" />
    <rect
       style="fill:url(#radialGradient3339-1-4);fill-opacity:1;stroke:none;stroke-width:1"
       id="rect3696-3-0-3-7"
       transform="scale(-1)"
       y="-47"
       x="-10.066657"
       height="7"
       width="5.0666575" />
    <rect
       style="fill:url(#linearGradient6394);fill-opacity:1;stroke:none;stroke-width:1"
       id="rect3700-5-6-8-4"
       y="40"
       x="10.066658"
       height="7.0000005"
       width="27.866617" />
  </g>
  <ellipse
     style="opacity:0.4;vector-effect:none;fill:url(#radialGradient875);fill-opacity:1;stroke:none;stroke-width:1;stroke-linecap:butt;stroke-linejoin:round;stroke-miterlimit:4;stroke-dasharray:none;stroke-dashoffset:0;stroke-opacity:1;marker:none;paint-order:normal"
     id="path867"
     cx="32"
     cy="59"
     rx="11"
     ry="2" />
  <path
     style="color:#000000;display:inline;overflow:visible;visibility:visible;opacity:1;fill:url(#linearGradient874);fill-opacity:1;fill-rule:nonzero;stroke:none;stroke-width:0.99999994;marker:none;enable-background:accumulate"
     d="M 7.5 5 C 6.115 5 5 6.115 5 7.5 L 5 46.5 C 5 47.885 6.115 49 7.5 49 L 21.621094 49 L 31.347656 58.726562 C 31.708846 59.087752 32.291154 59.087752 32.652344 58.726562 L 42.378906 49 L 56.5 49 C 57.885 49 59 47.885 59 46.5 L 59 7.5 C 59 6.115 57.885 5 56.5 5 L 7.5 5 z "
     id="rect5505-21-3-8-5-2" />
  <path
     style="opacity:1;fill:none;stroke:url(#linearGradient3381-5-4);stroke-width:1;stroke-linecap:round;stroke-linejoin:round;stroke-miterlimit:4;stroke-dasharray:none;stroke-dashoffset:0;stroke-opacity:1"
     d="M 7.5 5.4296875 C 6.392 5.4296875 5.5 6.3216875 5.5 7.4296875 L 5.5 46.5 C 5.5 47.608 6.392 48.5 7.5 48.5 L 21.847656 48.5 L 31.734375 58.388672 C 31.881333 58.53563 32.118667 58.53563 32.265625 58.388672 L 42.152344 48.5 L 56.5 48.5 C 57.608 48.5 58.5 47.608 58.5 46.5 L 58.5 7.4296875 C 58.5 6.3216875 57.608 5.4296875 56.5 5.4296875 L 7.5 5.4296875 z "
     id="rect6741-5-0-2-3" />
  <path
     style="color:#000000;display:inline;overflow:visible;visibility:visible;opacity:0.5;fill:none;stroke:#555761;stroke-width:1;stroke-linecap:round;stroke-linejoin:round;stroke-miterlimit:4;stroke-dasharray:none;stroke-dashoffset:0;stroke-opacity:1;marker:none;enable-background:accumulate"
     d="M 7.5 4.5 C 5.838 4.5 4.5 5.838 4.5 7.5 L 4.5 46.5 C 4.5 48.162 5.838 49.5 7.5 49.5 L 21.416016 49.5 L 31 59.082031 C 31.553998 59.636029 32.446002 59.636029 33 59.082031 L 42.583984 49.5 L 56.5 49.5 C 58.162 49.5 59.5 48.162 59.5 46.5 L 59.5 7.5 C 59.5 5.838 58.162 4.5 56.5 4.5 L 7.5 4.5 z "
     id="rect5505-21-3-8-9-1-1" />
  <g
     style="stroke-width:3.35399461"
     id="g973"
     transform="matrix(0.30110756,0,0,0.29522533,12.729116,8.1032768)">
    <path
       id="path947"
       d="M 122.10261,64 C 122.10261,94.871276 98.582037,120.66442 64,119.89739 31.918705,119.18582 5.8973926,97.9394 5.8973923,64 5.897392,29.868843 31.910816,8.1026117 64,8.1026115 96.089185,8.1026104 122.10261,30.444115 122.10261,64 Z"
       style="opacity:1;vector-effect:none;fill:url(#linearGradient955);fill-opacity:1;stroke:none;stroke-width:13.41597843;stroke-linecap:butt;stroke-linejoin:round;stroke-miterlimit:4;stroke-dasharray:none;stroke-dashoffset:0;stroke-opacity:1;marker:none;paint-order:normal" />
    <path
       id="path962"
       d="m 17.626953,61.289062 c 5.720636,23.723418 20.908923,37.421876 45.695313,37.421876 24.78639,0 39.974674,-13.698458 45.695314,-37.421876 0,0 -28.231156,3.253907 -45.695314,3.253907 -17.464158,0 -45.695313,-3.253907 -45.695313,-3.253907 z"
       style="opacity:1;fill:#1a1a1a;stroke:none;stroke-width:13.41597843;stroke-linecap:butt;stroke-linejoin:round;stroke-opacity:1" />
    <path
       style="fill:#ff8c82;stroke:none;stroke-width:3.35399461"
       d="m 63.48,86.42 c -11.78,0 -22.05,6.42 -27.53,15.95 7.12,3.89 16.83,6.29 27.53,6.29 10.7,0 20.41,-2.4 27.53,-6.29 C 85.53,92.84 75.26,86.42 63.48,86.42 Z"
       clip-path="url(#a-3)"
       id="path49-5" />
    <path
       style="fill:#1a1a1a;stroke-width:3.35399461"
       d="m 82.74,30.19 c 4.19,0 8,3.54 8,9.42 0,5.88 -3.81,9.42 -8,9.42 -4.19,0 -8,-3.54 -8,-9.42 0,-5.88 3.81,-9.42 8,-9.42 z"
       id="path63" />
    <path
       style="fill:#1a1a1a;stroke-width:3.35399461"
       d="m 45.2,30.19 c -4.19,0 -8,3.54 -8,9.42 0,5.88 3.81,9.42 8,9.42 4.19,0 8,-3.54 8,-9.42 0,-5.88 -3.81,-9.42 -8,-9.42 z"
       id="path65" />
    <path
       style="opacity:0.7;vector-effect:none;fill:none;fill-opacity:1;stroke:#ad5f00;stroke-width:3.35399461;stroke-linecap:butt;stroke-linejoin:round;stroke-miterlimit:4;stroke-dasharray:none;stroke-dashoffset:0;stroke-opacity:1;marker:none;paint-order:normal"
       d="M 122.10261,64 C 122.10261,94.871276 98.582037,120.66442 64,119.89739 31.918705,119.18582 5.8973926,97.9394 5.8973923,64 5.897392,29.868843 31.910816,8.1026117 64,8.1026115 96.089185,8.1026104 122.10261,30.444115 122.10261,64 Z"
       id="path944" />
    <path
       id="path1011"
       d="m 64,85.966797 a 24.61017,16.813559 0 0 0 -21.511719,8.65625 c 5.96748,2.681478 12.907769,4.087891 20.833985,4.087891 8.353662,0 15.612792,-1.561908 21.791015,-4.533204 A 24.61017,16.813559 0 0 0 64,85.966797 Z"
       style="opacity:1;fill:#ff8c82;stroke:none;stroke-width:13.41597843;stroke-linecap:butt;stroke-linejoin:round;stroke-opacity:1" />
    <path
       style="opacity:0.7;fill:none;stroke:#7a0000;stroke-width:3.35399461;stroke-linecap:butt;stroke-linejoin:round;stroke-opacity:1"
       d="m 64,85.966797 a 24.61017,16.813559 0 0 0 -21.511719,8.65625 c 5.96748,2.681478 12.907769,4.087891 20.833985,4.087891 8.353662,0 15.612792,-1.561908 21.791015,-4.533204 A 24.61017,16.813559 0 0 0 64,85.966797 Z"
       id="path1014" />
    <path
       id="path1375"
       transform="matrix(1.6369183,0,0,1.6685876,-42.642733,-31.775332)"
       d="m 36.818359,55.773438 c 0.242581,0.986885 0.520018,1.938932 0.81836,2.867187 a 30.576271,10.542373 0 0 0 27.787109,6.173828 30.576271,10.542373 0 0 0 26.00586,-5.021484 c 0.458251,-1.285237 0.875435,-2.614888 1.220703,-4.019531 0,0 -17.247091,1.951171 -27.916016,1.951171 -10.668925,0 -27.916016,-1.951171 -27.916016,-1.951171 z"
       style="opacity:1;fill:#fdfdff;stroke:none;stroke-width:8.11772537;stroke-linecap:butt;stroke-linejoin:round;stroke-opacity:1" />
    <path
       style="opacity:0.7;fill:none;stroke:#ad5f00;stroke-width:3.35399461;stroke-linecap:butt;stroke-linejoin:round;stroke-opacity:1"
       d="m 19.079922,62.241724 c 5.720636,23.723418 20.182439,37.210173 44.968829,37.210173 24.78639,0 39.040619,-13.380903 44.761259,-37.104321 0,0 -20.343606,3.571461 -45.487744,3.571461 -26.804674,0 -44.242344,-3.677313 -44.242344,-3.677313 z"
       id="path939" />
    <path
       id="path1378"
       d="M 118.71734,64.000483 C 118.71734,93.073079 96.567154,117.36342 64,116.64108 33.787885,115.97097 9.2826753,95.962443 9.282675,64.000483 9.2826748,31.85794 33.780457,11.359893 64,11.359892 c 30.219545,-1e-6 54.71734,21.039801 54.71734,52.640591 z"
       style="opacity:0.3;vector-effect:none;fill:none;fill-opacity:1;stroke:#ffffff;stroke-width:3.35399461;stroke-linecap:butt;stroke-linejoin:round;stroke-miterlimit:4;stroke-dasharray:none;stroke-dashoffset:0;stroke-opacity:1;marker:none;paint-order:normal" />
  </g>
</svg>
