<?xml version="1.0" encoding="UTF-8" standalone="no"?>
<svg
   xmlns:dc="http://purl.org/dc/elements/1.1/"
   xmlns:cc="http://creativecommons.org/ns#"
   xmlns:rdf="http://www.w3.org/1999/02/22-rdf-syntax-ns#"
   xmlns:svg="http://www.w3.org/2000/svg"
   xmlns="http://www.w3.org/2000/svg"
   xmlns:xlink="http://www.w3.org/1999/xlink"
   id="svg6333"
   height="64"
   width="64"
   version="1.1">
  <defs
     id="defs6335">
    <linearGradient
       id="linearGradient878">
      <stop
         id="stop874"
         offset="0"
         style="stop-color:#ffffff;stop-opacity:1;" />
      <stop
         style="stop-color:#ffffff;stop-opacity:0.3"
         offset="0.5"
         id="stop882" />
      <stop
         id="stop876"
         offset="1"
         style="stop-color:#ffffff;stop-opacity:0.5" />
    </linearGradient>
    <linearGradient
       id="linearGradient873">
      <stop
         id="stop869"
         offset="0"
         style="stop-color:#000000;stop-opacity:1" />
      <stop
         id="stop871"
         offset="1"
         style="stop-color:#000000;stop-opacity:0" />
    </linearGradient>
    <linearGradient
       id="linearGradient905">
      <stop
         id="stop901"
         offset="0"
         style="stop-color:#ed5353;stop-opacity:1" />
      <stop
         id="stop903"
         offset="1"
         style="stop-color:#c6262e;stop-opacity:1" />
    </linearGradient>
    <linearGradient
       id="linearGradient868">
      <stop
         id="stop864"
         offset="0"
         style="stop-color:#ffe16b;stop-opacity:1" />
      <stop
         id="stop866"
         offset="1"
         style="stop-color:#f9c440;stop-opacity:1" />
    </linearGradient>
    <linearGradient
       id="linearGradient872">
      <stop
         id="stop868"
         offset="0"
         style="stop-color:#fafafa;stop-opacity:1" />
      <stop
         id="stop870"
         offset="1"
         style="stop-color:#d4d4d4;stop-opacity:1" />
    </linearGradient>
    <linearGradient
       gradientTransform="matrix(1.4324324,0,0,1.4362832,-2.378381,-2.4707782)"
       gradientUnits="userSpaceOnUse"
       xlink:href="#linearGradient3924-2-2-5-8"
       id="linearGradient3381-5-4"
       y2="43"
       x2="23.99999"
       y1="4.999989"
       x1="23.99999" />
    <linearGradient
       id="linearGradient3924-2-2-5-8">
      <stop
         offset="0"
         style="stop-color:#ffffff;stop-opacity:1"
         id="stop3926-9-4-9-6" />
      <stop
         offset="0.06316455"
         style="stop-color:#ffffff;stop-opacity:0.23529412"
         id="stop3928-9-8-6-5" />
      <stop
         offset="0.95056331"
         style="stop-color:#ffffff;stop-opacity:0.15686275"
         id="stop3930-3-5-1-7" />
      <stop
         offset="1"
         style="stop-color:#ffffff;stop-opacity:0.39215687"
         id="stop3932-8-0-4-8" />
    </linearGradient>
    <radialGradient
       gradientTransform="matrix(2.0304974,0,0,1.4,27.78793,-17.4)"
       gradientUnits="userSpaceOnUse"
       xlink:href="#linearGradient3688-166-749-4-0-3-8"
       id="radialGradient3337-2-2"
       fy="43.5"
       fx="4.9929786"
       r="2.5"
       cy="43.5"
       cx="4.9929786" />
    <linearGradient
       id="linearGradient3688-166-749-4-0-3-8">
      <stop
         offset="0"
         style="stop-color:#181818;stop-opacity:1"
         id="stop2883-4-0-1-8" />
      <stop
         offset="1"
         style="stop-color:#181818;stop-opacity:0"
         id="stop2885-9-2-9-6" />
    </linearGradient>
    <radialGradient
       gradientTransform="matrix(2.0304974,0,0,1.4,-20.212001,-104.4)"
       gradientUnits="userSpaceOnUse"
       xlink:href="#linearGradient3688-464-309-9-2-4-2"
       id="radialGradient3339-1-4"
       fy="43.5"
       fx="4.9929786"
       r="2.5"
       cy="43.5"
       cx="4.9929786" />
    <linearGradient
       id="linearGradient3688-464-309-9-2-4-2">
      <stop
         offset="0"
         style="stop-color:#181818;stop-opacity:1"
         id="stop2889-7-9-6-9" />
      <stop
         offset="1"
         style="stop-color:#181818;stop-opacity:0"
         id="stop2891-6-6-1-7" />
    </linearGradient>
    <linearGradient
       id="linearGradient3702-501-757-8-4-1-1">
      <stop
         offset="0"
         style="stop-color:#181818;stop-opacity:0"
         id="stop2895-8-9-9-1" />
      <stop
         offset="0.5"
         style="stop-color:#181818;stop-opacity:1"
         id="stop2897-7-8-7-7" />
      <stop
         offset="1"
         style="stop-color:#181818;stop-opacity:0"
         id="stop2899-4-5-1-5" />
    </linearGradient>
    <linearGradient
       gradientTransform="matrix(0.99523631,0,0,1,0.11429448,0)"
       gradientUnits="userSpaceOnUse"
       xlink:href="#linearGradient3702-501-757-8-4-1-1"
       id="linearGradient6394"
       y2="39.999443"
       x2="25.058096"
       y1="47.027729"
       x1="25.058096" />
    <linearGradient
       gradientUnits="userSpaceOnUse"
       y2="59.185272"
       x2="31.585226"
       y1="4.6304479"
       x1="31.585226"
       id="linearGradient874"
       xlink:href="#linearGradient872" />
    <linearGradient
       gradientUnits="userSpaceOnUse"
       y2="42.5"
       x2="32"
       y1="11.5"
       x1="32"
       id="linearGradient870"
       xlink:href="#linearGradient868" />
    <linearGradient
       gradientUnits="userSpaceOnUse"
       y2="39.5"
       x2="32"
       y1="36.5"
       x1="32"
       id="linearGradient907"
       xlink:href="#linearGradient905" />
    <radialGradient
       gradientUnits="userSpaceOnUse"
       gradientTransform="matrix(1,0,0,0.18181818,0,48.090907)"
       r="11"
       fy="60"
       fx="32"
       cy="60"
       cx="32"
       id="radialGradient875"
       xlink:href="#linearGradient873" />
    <linearGradient
       gradientUnits="userSpaceOnUse"
       y2="42"
       x2="32"
       y1="12"
       x1="32"
       id="linearGradient880"
       xlink:href="#linearGradient878" />
  </defs>
  <metadata
     id="metadata6338">
    <rdf:RDF>
      <cc:Work
         rdf:about="">
        <dc:format>image/svg+xml</dc:format>
        <dc:type
           rdf:resource="http://purl.org/dc/dcmitype/StillImage" />
        <dc:title />
      </cc:Work>
    </rdf:RDF>
  </metadata>
  <g
     transform="matrix(1.5789502,0,0,0.7142857,-5.894751,27.928572)"
     id="g3712-8-2-4-4"
     style="opacity:0.07">
    <rect
       width="5.0666575"
       height="7"
       x="37.933273"
       y="40"
       id="rect2801-5-5-7-9"
       style="fill:url(#radialGradient3337-2-2);fill-opacity:1;stroke:none;stroke-width:1" />
    <rect
       width="5.0666575"
       height="7"
       x="-10.066657"
       y="-47"
       transform="scale(-1)"
       id="rect3696-3-0-3-7"
       style="fill:url(#radialGradient3339-1-4);fill-opacity:1;stroke:none;stroke-width:1" />
    <rect
       width="27.866617"
       height="7.0000005"
       x="10.066658"
       y="40"
       id="rect3700-5-6-8-4"
       style="fill:url(#linearGradient6394);fill-opacity:1;stroke:none;stroke-width:1" />
  </g>
  <ellipse
     ry="2"
     rx="11"
     cy="59"
     cx="32"
     id="path867"
     style="opacity:0.4;vector-effect:none;fill:url(#radialGradient875);fill-opacity:1;stroke:none;stroke-width:1;stroke-linecap:butt;stroke-linejoin:round;stroke-miterlimit:4;stroke-dasharray:none;stroke-dashoffset:0;stroke-opacity:1;marker:none;paint-order:normal" />
  <path
     id="rect5505-21-3-8-5-2"
     d="M 7.5 5 C 6.115 5 5 6.115 5 7.5 L 5 46.5 C 5 47.885 6.115 49 7.5 49 L 21.621094 49 L 31.347656 58.726562 C 31.708846 59.087752 32.291154 59.087752 32.652344 58.726562 L 42.378906 49 L 56.5 49 C 57.885 49 59 47.885 59 46.5 L 59 7.5 C 59 6.115 57.885 5 56.5 5 L 7.5 5 z "
     style="color:#000000;display:inline;overflow:visible;visibility:visible;opacity:1;fill:url(#linearGradient874);fill-opacity:1;fill-rule:nonzero;stroke:none;stroke-width:0.99999994;marker:none;enable-background:accumulate" />
  <path
     id="rect6741-5-0-2-3"
     d="M 7.5 5.4296875 C 6.392 5.4296875 5.5 6.3216875 5.5 7.4296875 L 5.5 46.5 C 5.5 47.608 6.392 48.5 7.5 48.5 L 21.847656 48.5 L 31.734375 58.388672 C 31.881333 58.53563 32.118667 58.53563 32.265625 58.388672 L 42.152344 48.5 L 56.5 48.5 C 57.608 48.5 58.5 47.608 58.5 46.5 L 58.5 7.4296875 C 58.5 6.3216875 57.608 5.4296875 56.5 5.4296875 L 7.5 5.4296875 z "
     style="opacity:1;fill:none;stroke:url(#linearGradient3381-5-4);stroke-width:1;stroke-linecap:round;stroke-linejoin:round;stroke-miterlimit:4;stroke-dasharray:none;stroke-dashoffset:0;stroke-opacity:1" />
  <path
     id="rect5505-21-3-8-9-1-1"
     d="M 7.5 4.5 C 5.838 4.5 4.5 5.838 4.5 7.5 L 4.5 46.5 C 4.5 48.162 5.838 49.5 7.5 49.5 L 21.416016 49.5 L 31 59.082031 C 31.553998 59.636029 32.446002 59.636029 33 59.082031 L 42.583984 49.5 L 56.5 49.5 C 58.162 49.5 59.5 48.162 59.5 46.5 L 59.5 7.5 C 59.5 5.838 58.162 4.5 56.5 4.5 L 7.5 4.5 z "
     style="color:#000000;display:inline;overflow:visible;visibility:visible;opacity:0.5;fill:none;stroke:#555761;stroke-width:1;stroke-linecap:round;stroke-linejoin:round;stroke-miterlimit:4;stroke-dasharray:none;stroke-dashoffset:0;stroke-opacity:1;marker:none;enable-background:accumulate" />
  <circle
     style="opacity:1;vector-effect:none;fill:url(#linearGradient870);fill-opacity:1;stroke:none;stroke-width:1;stroke-linecap:butt;stroke-linejoin:round;stroke-miterlimit:4;stroke-dasharray:none;stroke-dashoffset:0;stroke-opacity:1;marker:none;paint-order:normal"
     id="circle862"
     cx="32"
     cy="27"
     r="15.5" />
  <circle
     r="15.5"
     cy="27"
     cx="32"
     id="path860"
     style="opacity:0.5;vector-effect:none;fill:none;fill-opacity:1;stroke:#ad5f00;stroke-width:1;stroke-linecap:butt;stroke-linejoin:round;stroke-miterlimit:4;stroke-dasharray:none;stroke-dashoffset:0;stroke-opacity:1;marker:none;paint-order:normal" />
  <path
     id="path876"
     d="M 43.499999,31.5 C 43.499999,36.5 38,39.499999 32,39.499999 26,39.499999 21.5,36.5 21.5,31.5 c 0,-2.5 21.999999,-2.5 21.999999,0 z"
     style="opacity:1;vector-effect:none;fill:#333333;fill-opacity:1;stroke:none;stroke-width:0.99999994;stroke-linecap:butt;stroke-linejoin:round;stroke-miterlimit:4;stroke-dasharray:none;stroke-dashoffset:0;stroke-opacity:1;marker:none;paint-order:normal" />
  <ellipse
     ry="5.0014076"
     rx="1.5014077"
     cy="22.498592"
     cx="25.999531"
     id="ellipse885"
     style="opacity:1;vector-effect:none;fill:#333333;fill-opacity:1;stroke:none;stroke-width:0.99999994;stroke-linecap:butt;stroke-linejoin:round;stroke-miterlimit:4;stroke-dasharray:none;stroke-dashoffset:0;stroke-opacity:1;marker:none;paint-order:normal" />
  <ellipse
     style="opacity:0.5;vector-effect:none;fill:none;fill-opacity:1;stroke:#000000;stroke-width:0.99999994;stroke-linecap:butt;stroke-linejoin:round;stroke-miterlimit:4;stroke-dasharray:none;stroke-dashoffset:0;stroke-opacity:1;marker:none;paint-order:normal"
     id="ellipse879"
     cx="25.999531"
     cy="22.498592"
     rx="1.5014077"
     ry="5.0014076" />
  <ellipse
     style="opacity:1;vector-effect:none;fill:#333333;fill-opacity:1;stroke:none;stroke-width:0.99999994;stroke-linecap:butt;stroke-linejoin:round;stroke-miterlimit:4;stroke-dasharray:none;stroke-dashoffset:0;stroke-opacity:1;marker:none;paint-order:normal"
     id="ellipse887"
     cx="38.001408"
     cy="22.498592"
     rx="1.5014077"
     ry="5.0014076" />
  <ellipse
     ry="5.0014076"
     rx="1.5014077"
     cy="22.498592"
     cx="38.001408"
     id="ellipse883"
     style="opacity:0.5;vector-effect:none;fill:none;fill-opacity:1;stroke:#000000;stroke-width:0.99999994;stroke-linecap:butt;stroke-linejoin:round;stroke-miterlimit:4;stroke-dasharray:none;stroke-dashoffset:0;stroke-opacity:1;marker:none;paint-order:normal" />
  <path
     id="path891"
     d="m 32.5,29.625 c -5.5,0 -11,0.625 -11,1.875 0,0.683337 0.09151,1.325568 0.251953,1.931641 2.262127,-1.899174 19.046506,-1.907633 21.453125,-0.02734 C 43.392166,32.806215 43.5,32.172985 43.5,31.5 c 0,-1.25 -5.5,-1.875 -11,-1.875 z"
     style="opacity:1;vector-effect:none;fill:#fafafa;fill-opacity:1;stroke:none;stroke-width:0.99999994;stroke-linecap:butt;stroke-linejoin:round;stroke-miterlimit:4;stroke-dasharray:none;stroke-dashoffset:0;stroke-opacity:1;marker:none;paint-order:normal" />
  <path
     id="path896"
     d="m 32,36.486328 a 7.5,3.5145147 0 0 0 -6.304688,1.617188 C 27.427443,39.007842 29.58846,39.5 32,39.5 c 2.31945,0 4.560246,-0.452144 6.441406,-1.291016 A 7.5,3.5145147 0 0 0 32,36.486328 Z"
     style="opacity:1;vector-effect:none;fill:url(#linearGradient907);fill-opacity:1;stroke:none;stroke-width:0.99999994;stroke-linecap:butt;stroke-linejoin:round;stroke-miterlimit:4;stroke-dasharray:none;stroke-dashoffset:0;stroke-opacity:1;marker:none;paint-order:normal" />
  <path
     style="opacity:0.7;vector-effect:none;fill:none;fill-opacity:1;stroke:#7a0000;stroke-width:0.99999994;stroke-linecap:butt;stroke-linejoin:round;stroke-miterlimit:4;stroke-dasharray:none;stroke-dashoffset:0;stroke-opacity:1;marker:none;paint-order:normal"
     d="m 32,36.486328 a 7.5,3.5145147 0 0 0 -6.304688,1.617188 C 27.427443,39.007842 29.58846,39.5 32,39.5 c 2.31945,0 4.560246,-0.452144 6.441406,-1.291016 A 7.5,3.5145147 0 0 0 32,36.486328 Z"
     id="path899" />
  <path
     style="opacity:0.5;vector-effect:none;fill:none;fill-opacity:1;stroke:#000000;stroke-width:0.99999994;stroke-linecap:butt;stroke-linejoin:round;stroke-miterlimit:4;stroke-dasharray:none;stroke-dashoffset:0;stroke-opacity:1;marker:none;paint-order:normal"
     d="M 43.499999,31.5 C 43.499999,36.5 38,39.499999 32,39.499999 26,39.499999 21.5,36.5 21.5,31.5 c 0,-2.5 21.999999,-2.5 21.999999,0 z"
     id="path881" />
  <path
     id="path909"
     d="m 22,33.882812 c 0.837891,-0.83789 5.40332,-1.367925 9.933105,-1.403385 4.529786,-0.03546 9.984864,0.421416 10.984864,1.395573"
     style="opacity:0.5;fill:none;stroke:#000000;stroke-width:1px;stroke-linecap:butt;stroke-linejoin:miter;stroke-opacity:1" />
  <circle
     style="opacity:0.5;vector-effect:none;fill:none;fill-opacity:1;stroke:url(#linearGradient880);stroke-width:1;stroke-linecap:butt;stroke-linejoin:round;stroke-miterlimit:4;stroke-dasharray:none;stroke-dashoffset:0;stroke-opacity:1;marker:none;paint-order:normal"
     id="circle872"
     cx="32"
     cy="27"
     r="14.5" />
</svg>
